<?xml version="1.0" encoding="UTF-8"?>
<svg xmlns="http://www.w3.org/2000/svg" xmlns:xlink="http://www.w3.org/1999/xlink" viewBox="0 0 52 52" width="52px" height="52px">
<g id="surface39489813">
<path style=" stroke:none;fill-rule:nonzero;fill:rgb(100%,100%,100%);fill-opacity:1;" d="M 26 0 C 11.640625 0 0 11.640625 0 26 C 0 39.035156 9.601562 49.796875 22.113281 51.679688 L 22.113281 32.890625 L 15.679688 32.890625 L 15.679688 26.054688 L 22.113281 26.054688 L 22.113281 21.507812 C 22.113281 13.976562 25.78125 10.675781 32.039062 10.675781 C 35.035156 10.675781 36.621094 10.894531 37.371094 10.996094 L 37.371094 16.964844 L 33.105469 16.964844 C 30.449219 16.964844 29.519531 19.480469 29.519531 22.320312 L 29.519531 26.058594 L 37.304688 26.058594 L 36.25 32.890625 L 29.519531 32.890625 L 29.519531 51.734375 C 42.210938 50.011719 52 39.160156 52 26 C 52 11.640625 40.359375 0 26 0 Z M 26 0 "/>
</g>
</svg>
