<?xml version="1.0" encoding="UTF-8"?>
<svg xmlns="http://www.w3.org/2000/svg" xmlns:xlink="http://www.w3.org/1999/xlink" viewBox="0 0 52 52" width="52px" height="52px">
<g id="surface39490346">
<path style=" stroke:none;fill-rule:nonzero;fill:rgb(100%,100%,100%);fill-opacity:1;" d="M 51.710938 11.148438 C 49.828125 11.984375 47.804688 12.546875 45.679688 12.804688 C 47.84375 11.5 49.515625 9.445312 50.296875 6.992188 C 48.265625 8.195312 46.015625 9.070312 43.625 9.539062 C 41.710938 7.5 38.984375 6.226562 35.960938 6.226562 C 30.164062 6.226562 25.460938 10.929688 25.460938 16.726562 C 25.460938 17.546875 25.554688 18.351562 25.734375 19.117188 C 17.007812 18.679688 9.273438 14.492188 4.09375 8.140625 C 3.1875 9.695312 2.671875 11.5 2.671875 13.429688 C 2.671875 17.070312 4.523438 20.28125 7.34375 22.164062 C 5.617188 22.109375 4 21.640625 2.585938 20.851562 C 2.585938 20.898438 2.585938 20.9375 2.585938 20.984375 C 2.585938 26.070312 6.203125 30.3125 11.007812 31.28125 C 10.125 31.523438 9.203125 31.648438 8.242188 31.648438 C 7.5625 31.648438 6.90625 31.585938 6.265625 31.460938 C 7.601562 35.625 11.476562 38.671875 16.070312 38.75 C 12.484375 41.570312 7.953125 43.242188 3.03125 43.242188 C 2.179688 43.242188 1.351562 43.195312 0.53125 43.101562 C 5.171875 46.078125 10.695312 47.8125 16.625 47.8125 C 35.9375 47.8125 46.5 31.8125 46.5 17.945312 C 46.5 17.484375 46.492188 17.03125 46.46875 16.578125 C 48.523438 15.109375 50.304688 13.257812 51.710938 11.148438 "/>
</g>
</svg>
